<svg width="25" height="24" viewBox="0 0 25 24" fill="none" xmlns="http://www.w3.org/2000/svg">
<path d="M22.1803 12.1171C22.1803 6.5296 17.6507 2 12.0632 2C7.52815 2 3.69004 4.98385 2.405 9.0954C2.32268 9.35878 2.28152 9.49047 2.28541 9.65514C2.28857 9.78904 2.32927 9.95446 2.3886 10.0745C2.46156 10.2222 2.57423 10.3349 2.79954 10.5602L13.6205 21.3807C13.8459 21.606 13.9585 21.7187 14.1062 21.7916C14.2263 21.8509 14.3917 21.8916 14.5256 21.8948C14.6903 21.8987 14.822 21.8575 15.0853 21.7752C19.1967 20.49 22.1803 16.652 22.1803 12.1171Z" stroke="white" stroke-width="2" stroke-linecap="round" stroke-linejoin="round"/>
<path d="M3.62649 9.7341C3.86699 9.71699 4.10982 9.70829 4.35468 9.70829C9.94221 9.70829 14.4718 14.2379 14.4718 19.8254C14.4718 20.0703 14.4631 20.3131 14.446 20.5536C14.4161 20.9738 14.4012 21.1839 14.2787 21.3137C14.1792 21.4191 14.0095 21.4824 13.8653 21.468C13.6877 21.4502 13.5262 21.2887 13.2033 20.9658L3.21433 10.9768C2.89139 10.6539 2.72993 10.4924 2.71214 10.3148C2.6977 10.1706 2.76105 10.0009 2.86644 9.9014C2.9962 9.77892 3.20629 9.76398 3.62649 9.7341Z" stroke="white" stroke-width="2" stroke-linecap="round" stroke-linejoin="round"/>
</svg>
